<svg width="55" height="77" viewBox="0 0 55 77" fill="none" xmlns="http://www.w3.org/2000/svg">
<g clip-path="url(#clip0_2_3314)">
<path d="M23.9543 49.5004C23.8203 49.3433 23.6986 49.1761 23.5901 49.0004H14.0962C14.0167 49.0004 13.7206 49.0004 13.6362 49.0004C13.1918 49.0177 12.747 48.9799 12.3119 48.8877C11.9766 48.8073 11.6715 48.6325 11.4325 48.384C11.1947 48.1291 11.0331 47.8126 10.9661 47.4704C10.8886 47.0207 10.8581 46.5642 10.8751 46.1082V15.2917C10.8751 15.1951 10.8751 14.9791 10.8751 14.8798C10.8545 14.4002 10.8916 13.9199 10.9856 13.4491C11.069 13.0883 11.2621 12.762 11.5383 12.5152C11.6809 12.3892 11.843 12.2871 12.0183 12.2129C12.192 12.1407 12.3739 12.09 12.56 12.062C12.7956 12.0267 13.0333 12.0077 13.2715 12.005C13.4295 12.0012 13.6134 12.0006 13.7895 12.0006H15.0724C15.1217 11.9984 15.1712 12.0009 15.2201 12.0082C15.2687 12.0144 15.314 12.0363 15.349 12.0706C15.3841 12.1049 15.4069 12.1497 15.4141 12.1982C15.4252 12.2507 15.4241 12.5618 15.4257 12.6082C15.4257 12.7194 15.4343 12.8304 15.4512 12.9402C15.4698 13.0487 15.507 13.1532 15.5612 13.249C15.6481 13.4008 15.7735 13.527 15.9248 13.6149C16.0427 13.6818 16.1728 13.7243 16.3075 13.7398C16.4432 13.7533 16.5797 13.7576 16.716 13.7528H22.1406C22.3917 13.7793 22.6453 13.7381 22.8751 13.6335V11.0004H14.0967H13.8113C13.6204 11.0004 13.4193 11.0011 13.2472 11.0053C12.9635 11.0094 12.6804 11.0328 12.3999 11.0753C12.1341 11.1163 11.8743 11.1896 11.6263 11.2935C11.352 11.4096 11.0983 11.5694 10.8751 11.7666C10.4496 12.1465 10.1501 12.647 10.0165 13.2015C9.89943 13.7573 9.85193 14.3255 9.87508 14.893V15.2917V46.1082C9.85683 46.6365 9.89521 47.1653 9.98958 47.6854C10.0956 48.2057 10.3444 48.6862 10.708 49.0732C11.0756 49.4559 11.5438 49.7269 12.0588 49.8548C12.5749 49.9693 13.1034 50.0182 13.6318 50.0004C13.7245 50.0004 14.0006 50.0009 14.0967 50.0004H24.4551C24.3169 49.8878 24.1863 49.7661 24.0641 49.6363C24.0244 49.5934 23.9922 49.5447 23.9543 49.5004ZM16.5735 13.0367C16.4988 13.0421 16.4241 13.0267 16.3576 12.9923C16.2912 12.9578 16.2356 12.9055 16.1971 12.8413C16.1643 12.7811 16.1472 12.7136 16.1472 12.6451C16.1472 12.5765 16.1643 12.5091 16.1971 12.4488C16.2356 12.3847 16.2912 12.3326 16.3577 12.2982C16.4241 12.2637 16.4988 12.2484 16.5734 12.2539C16.6709 12.263 16.7615 12.3082 16.8274 12.3806C16.8934 12.453 16.93 12.5474 16.93 12.6453C16.93 12.7433 16.8934 12.8377 16.8274 12.9101C16.7615 12.9825 16.6709 13.0276 16.5734 13.0367H16.5735ZM17.8115 11.3767H20.8985C20.9315 11.3768 20.9631 11.3899 20.9865 11.4132C21.0099 11.4365 21.0231 11.468 21.0234 11.501V11.5019V11.5204C21.0234 11.5537 21.0101 11.5855 20.9866 11.609C20.9632 11.6325 20.9313 11.6457 20.8981 11.6457H17.8115C17.7783 11.6457 17.7464 11.6325 17.7229 11.609C17.6995 11.5855 17.6863 11.5536 17.6863 11.5204V11.5015V11.5005C17.6866 11.4675 17.6999 11.436 17.7233 11.4127C17.7468 11.3895 17.7785 11.3764 17.8115 11.3764V11.3767ZM45.8751 10.392C45.8954 9.7959 45.853 9.19929 45.7486 8.61203C45.6325 8.02747 45.358 7.48605 44.9551 7.04693C44.5516 6.6167 44.0335 6.31073 43.462 6.16503C42.8919 6.03604 42.3076 5.98096 41.7235 6.00113C41.6129 6.00066 41.5017 6.00043 41.3898 6.00043H28.5411H28.2264C28.0151 6.00043 27.7926 6.00123 27.6022 6.00603C27.2885 6.01042 26.9756 6.03665 26.6656 6.08453C26.3715 6.13085 26.0843 6.21352 25.8106 6.33063C25.5067 6.46239 25.2264 6.64282 24.9806 6.86483C24.5086 7.29667 24.1778 7.8609 24.0317 8.48373C23.9022 9.11111 23.8496 9.75193 23.8751 10.392V12.0006V45.6091C23.8548 46.2051 23.8971 46.8015 24.0015 47.3885C24.1176 47.9733 24.3923 48.515 24.7955 48.9542C24.8113 48.971 24.8294 48.9842 24.8455 49.0003C25.0294 49.1905 25.2376 49.3556 25.4647 49.4914C25.7222 49.6437 25.9995 49.7597 26.2888 49.8361C26.3819 49.8609 26.4777 49.8634 26.5717 49.8812C27.0522 49.9653 27.5395 50.0052 28.0273 50.0004C28.1965 50.001 28.3703 50.001 28.5411 50.0004H41.579C42.1747 50.0229 42.7711 49.9766 43.3562 49.8623C43.9439 49.7323 44.4816 49.4353 44.9047 49.0071C45.3264 48.5686 45.6161 48.0202 45.7405 47.4247C45.852 46.8263 45.8972 46.2174 45.8751 45.6091V10.8419C45.8751 10.6914 45.8751 10.5397 45.8751 10.392ZM33.2163 6.51203C33.2163 6.47755 33.23 6.44448 33.2544 6.4201C33.2787 6.39573 33.3118 6.38203 33.3463 6.38203H36.4049C36.4394 6.38203 36.4724 6.39573 36.4968 6.4201C36.5212 6.44448 36.5349 6.47755 36.5349 6.51203V6.53203C36.5349 6.56651 36.5212 6.59957 36.4968 6.62395C36.4724 6.64833 36.4394 6.66203 36.4049 6.66203H33.3458C33.3113 6.66203 33.2782 6.64833 33.2539 6.62395C33.2295 6.59957 33.2158 6.56651 33.2158 6.53203L33.2163 6.51203ZM31.6449 7.34503C31.6852 7.27798 31.7434 7.22344 31.8129 7.18746C31.8823 7.15149 31.9604 7.13548 32.0385 7.14123C32.1405 7.15067 32.2353 7.19788 32.3044 7.27361C32.3734 7.34933 32.4117 7.44811 32.4117 7.55058C32.4117 7.65305 32.3734 7.75183 32.3044 7.82755C32.2353 7.90327 32.1405 7.95048 32.0385 7.95993C31.9604 7.96559 31.8823 7.9495 31.8128 7.91343C31.7433 7.87736 31.6852 7.82274 31.6449 7.75563C31.6106 7.69255 31.5927 7.62189 31.5927 7.5501C31.5927 7.47831 31.6107 7.40767 31.6451 7.34463L31.6449 7.34503ZM44.8751 10.7669V24.4757V45.6285C44.895 46.1562 44.8581 46.6844 44.7651 47.2041C44.682 47.6192 44.4824 48.002 44.1897 48.3078C43.8992 48.601 43.5296 48.803 43.126 48.8891C42.6161 48.9839 42.0972 49.0212 41.579 49.0004H28.5398C28.3984 49.0004 28.1743 49.0004 28.0315 49.0004C27.7866 48.9993 27.5676 48.9931 27.3544 48.9814C27.082 48.9721 26.8112 48.9349 26.5464 48.8703C26.5321 48.8666 26.5212 48.8582 26.5071 48.8542C26.1331 48.7542 25.794 48.553 25.5271 48.2726C25.2468 47.9654 25.0571 47.5864 24.9792 47.1778C24.8909 46.6599 24.856 46.1342 24.8751 45.6091V12.0004C24.8751 11.4863 24.8751 10.8904 24.8751 10.3768C24.8518 9.82376 24.8942 9.26988 25.0016 8.72683C25.1003 8.29662 25.3267 7.90624 25.651 7.60683C25.8165 7.45755 26.0052 7.33623 26.2098 7.24763C26.4083 7.16333 26.6166 7.10408 26.8298 7.07123C27.0938 7.03073 27.3604 7.00891 27.6276 7.00593C27.8103 7.00133 28.0239 7.00063 28.2266 7.00063H28.3922H28.5413H30.492C30.5471 6.99814 30.6022 7.00099 30.6568 7.00913C30.711 7.01599 30.7616 7.04039 30.8007 7.07863C30.8398 7.11687 30.8653 7.16684 30.8734 7.22093C30.8827 7.27535 30.887 7.33052 30.8863 7.38573C30.8864 7.5096 30.8958 7.63329 30.9147 7.75573C30.9356 7.87684 30.9773 7.99343 31.038 8.10033C31.135 8.26973 31.2749 8.41057 31.4437 8.50863C31.5753 8.58326 31.7205 8.63067 31.8708 8.64803C32.0223 8.66304 32.1746 8.66792 32.3267 8.66263H37.4239C37.576 8.66792 37.7284 8.66304 37.8799 8.64803C38.0301 8.63065 38.1754 8.58324 38.307 8.50863C38.4757 8.41057 38.6155 8.26977 38.7125 8.10043C38.7731 7.99352 38.8148 7.87694 38.8357 7.75583C38.8545 7.6334 38.8641 7.50971 38.8642 7.38583C38.8633 7.33061 38.8677 7.27544 38.8771 7.22103C38.8851 7.16695 38.9107 7.11699 38.9497 7.07876C38.9888 7.04052 39.0393 7.01611 39.0936 7.00923C39.1481 7.00099 39.2034 6.99805 39.2585 7.00043H41.3898H41.7186C42.2171 6.98086 42.7162 7.02454 43.2038 7.13043C43.5938 7.22849 43.9476 7.43589 44.2238 7.72823C44.504 8.03548 44.6936 8.41442 44.7715 8.82293C44.8598 9.34132 44.8947 9.86741 44.8755 10.3929C44.8751 10.4604 44.8751 10.7044 44.8751 10.7669Z" fill="#1D1D1F"/>
</g>
<path d="M2.41203 65.4648C2.79875 65.4648 3.11516 65.1484 3.11516 64.7617C3.11516 64.375 2.79875 64.0586 2.41203 64.0586C2.02531 64.0586 1.70891 64.375 1.70891 64.7617C1.70891 65.1484 2.02531 65.4648 2.41203 65.4648ZM1.89641 73H2.91594V66.6836H1.89641V73ZM4.84672 73H5.90141V69.9824H8.03422C9.62211 69.9824 10.7471 68.8633 10.7471 67.2578V67.2461C10.7471 65.6406 9.62211 64.5449 8.03422 64.5449H4.84672V73ZM7.76469 65.4824C8.97172 65.4824 9.66898 66.1445 9.66898 67.2578V67.2695C9.66898 68.3828 8.97172 69.0449 7.76469 69.0449H5.90141V65.4824H7.76469ZM12.2853 73H13.3048V69.2617C13.3048 68.1543 13.9435 67.4746 14.9513 67.4746C15.9591 67.4746 16.4279 68.0195 16.4279 69.1562V73H17.4474V68.9102C17.4474 67.4102 16.6564 66.5723 15.2384 66.5723C14.3068 66.5723 13.715 66.9648 13.3986 67.6328H13.3048V64.1758H12.2853V73ZM21.7688 73.1113C23.5677 73.1113 24.6809 71.8691 24.6809 69.8477V69.8359C24.6809 67.8086 23.5677 66.5723 21.7688 66.5723C19.97 66.5723 18.8567 67.8086 18.8567 69.8359V69.8477C18.8567 71.8691 19.97 73.1113 21.7688 73.1113ZM21.7688 72.209C20.5735 72.209 19.8997 71.3359 19.8997 69.8477V69.8359C19.8997 68.3418 20.5735 67.4746 21.7688 67.4746C22.9641 67.4746 23.638 68.3418 23.638 69.8359V69.8477C23.638 71.3359 22.9641 72.209 21.7688 72.209ZM26.143 73H27.1625V69.2617C27.1625 68.1543 27.8012 67.4746 28.809 67.4746C29.8168 67.4746 30.2855 68.0195 30.2855 69.1562V73H31.3051V68.9102C31.3051 67.4102 30.5141 66.5723 29.0961 66.5723C28.1645 66.5723 27.5727 66.9648 27.2563 67.6328H27.1625V66.6836H26.143V73ZM35.6089 73.1113C37.0972 73.1113 37.9995 72.2676 38.2163 71.4121L38.228 71.3652H37.2085L37.1851 71.418C37.0152 71.7988 36.4878 72.2031 35.6323 72.2031C34.5073 72.2031 33.7866 71.4414 33.7573 70.1348H38.3042V69.7363C38.3042 67.8496 37.2612 66.5723 35.5445 66.5723C33.8277 66.5723 32.7144 67.9082 32.7144 69.8594V69.8652C32.7144 71.8457 33.8042 73.1113 35.6089 73.1113ZM35.5386 67.4805C36.4702 67.4805 37.1616 68.0723 37.2671 69.3203H33.7749C33.8862 68.1191 34.6011 67.4805 35.5386 67.4805ZM45.0837 73H46.1384V64.5449H45.0896L42.8396 66.1621V67.2754L44.99 65.7168H45.0837V73ZM51.3388 73.1406C53.0321 73.1406 54.2743 72.0977 54.2743 70.6855V70.6738C54.2743 69.4727 53.4364 68.7051 52.2059 68.5996V68.5762C53.2606 68.3535 53.9989 67.6387 53.9989 66.5957V66.584C53.9989 65.3008 52.9384 64.4043 51.327 64.4043C49.745 64.4043 48.6552 65.3242 48.5204 66.7012L48.5145 66.7598H49.5282L49.5341 66.7012C49.622 65.8457 50.3309 65.3184 51.327 65.3184C52.3583 65.3184 52.9384 65.8281 52.9384 66.7129V66.7246C52.9384 67.5684 52.2352 68.1895 51.2274 68.1895H50.2138V69.0801H51.2743C52.4579 69.0801 53.202 69.6602 53.202 70.6973V70.709C53.202 71.6055 52.4462 72.2266 51.3388 72.2266C50.2138 72.2266 49.4462 71.6523 49.3641 70.8203L49.3583 70.7617H48.3446L48.3505 70.832C48.4618 72.168 49.5927 73.1406 51.3388 73.1406Z" fill="#1D1D1F"/>
<defs>
<clipPath id="clip0_2_3314">
<rect width="36" height="54" fill="white" transform="translate(9.875)"/>
</clipPath>
</defs>
</svg>
