<svg width="54" height="44" viewBox="0 0 54 44" fill="none" xmlns="http://www.w3.org/2000/svg">
<path fill-rule="evenodd" clip-rule="evenodd" d="M40.713 22.3206H44.193C44.17 21.2016 43.502 20.4636 42.5 20.4636C41.492 20.4636 40.789 21.2016 40.713 22.3206ZM45.172 24.3656C44.879 25.4436 43.895 26.1116 42.512 26.1116C40.76 26.1116 39.664 24.8456 39.664 22.8476C39.664 20.8616 40.777 19.5726 42.512 19.5726C44.217 19.5726 45.254 20.7856 45.254 22.7486V23.1346H40.713V23.1816C40.766 24.4296 41.463 25.2206 42.535 25.2206C43.35 25.2206 43.901 24.9226 44.164 24.3656H45.172ZM32.89 19.6836H33.851V20.6796H33.945C34.261 19.9826 34.877 19.5726 35.843 19.5726C37.261 19.5726 38.052 20.4106 38.052 21.9106V26.0006H37.045V22.1566C37.045 21.0196 36.564 20.4806 35.556 20.4806C34.548 20.4806 33.898 21.1546 33.898 22.2616V26.0006H32.89V19.6836ZM30.391 22.8416C30.391 21.3416 29.717 20.4806 28.522 20.4806C27.326 20.4806 26.652 21.3416 26.652 22.8416C26.652 24.3366 27.326 25.2036 28.522 25.2036C29.717 25.2036 30.391 24.3366 30.391 22.8416ZM25.609 22.8416C25.609 20.8086 26.723 19.5726 28.522 19.5726C30.32 19.5726 31.434 20.8086 31.434 22.8416C31.434 24.8696 30.32 26.1116 28.522 26.1116C26.723 26.1116 25.609 24.8696 25.609 22.8416ZM18.973 17.1756H19.981V20.6796H20.074C20.391 19.9826 21.053 19.5726 22.02 19.5726C23.356 19.5726 24.199 20.4276 24.199 21.9106V26.0006H23.192V22.1566C23.192 21.0376 22.688 20.4806 21.733 20.4806C20.602 20.4806 19.981 21.1956 19.981 22.2616V26.0006H18.973V17.1756ZM12.958 22.0456H14.821C16.023 22.0456 16.72 21.4006 16.72 20.2816C16.72 19.1216 16.046 18.4826 14.821 18.4826H12.958V22.0456ZM15.097 17.5456C16.696 17.5456 17.804 18.6706 17.804 20.2816C17.804 21.8636 16.673 22.9826 15.085 22.9826H12.958V26.0006H11.903V17.5456H15.097ZM8.98296 25.9996H9.99096V19.6836H8.98296V25.9996ZM8.78296 17.7616C8.78296 17.3756 9.09996 17.0586 9.48596 17.0586C9.87296 17.0586 10.19 17.3756 10.19 17.7616C10.19 18.1486 9.87296 18.4656 9.48596 18.4656C9.09996 18.4656 8.78296 18.1486 8.78296 17.7616Z" fill="white"/>
</svg>
